<svg width="100" height="95" viewBox="0 0 100 95" fill="none" xmlns="http://www.w3.org/2000/svg">
<g clip-path="url(#clip0)">
<path d="M63.223 9.32454C65.2192 7.58254 68.2391 6.86208 70.604 5.77316C71.1689 5.45428 71.7032 6.13688 71.078 6.61283C68.871 7.98164 66.1069 9.41896 63.697 10.1642C63.1395 10.2328 62.8235 9.67305 63.223 9.32454Z" fill="black"/>
<path d="M51.0874 19.4967C51.9318 17.2976 54.2593 15.6147 56.3456 14.56C56.7975 14.3049 57.1135 14.8647 56.6616 15.1198C55.5845 15.8508 54.673 16.6114 53.8142 17.4653C53.0684 18.2554 52.4882 19.075 51.7423 19.8651C51.5087 20.243 50.9065 19.9679 51.0874 19.4967Z" fill="black"/>
<path d="M43.3323 33.4704C43.3103 32.3757 43.7928 31.1191 44.3806 30.0491C44.8028 28.9496 45.5036 27.8158 46.1441 26.8391C46.3777 26.4612 46.9273 26.6431 46.6937 27.021C46.1059 28.091 45.6837 29.1905 45.3745 30.2262C44.9523 31.3257 44.8614 32.4843 44.4392 33.5838C44.3111 34.1482 43.3699 34.0644 43.3323 33.4704Z" fill="black"/>
<path d="M44.338 40.5304C44.4136 39.8726 45.4153 39.7992 45.3395 40.4571C45.3769 41.0512 45.3539 41.8023 45.3913 42.3963C45.534 43.177 46.0158 43.7662 45.9929 44.5173C46.0379 44.8609 45.473 45.1798 45.202 44.9637C44.0576 44.2564 44.2394 41.9393 44.338 40.5304Z" fill="black"/>
<path d="M47.8711 53.9143C47.3444 52.9814 46.8178 52.0484 46.5697 51.0812C46.4194 50.5509 47.0973 50.1682 47.3606 50.6347C47.9476 51.4106 48.3689 52.157 48.8429 52.9967C49.3169 53.8364 50.0168 54.5485 50.1519 55.5795C50.2495 56.0163 49.4586 56.4627 49.1351 56.1535C48.4876 55.5347 48.1792 54.7246 47.8711 53.9143Z" fill="black"/>
<path d="M55.2168 60.594C56.1953 61.2718 57.1738 61.9495 58.3784 62.4999C59.4173 63.0208 60.6822 63.414 61.3218 64.2832C61.6981 64.6859 60.9599 65.2257 60.5156 65.2302C59.2432 65.0875 58.159 64.223 57.1806 63.5451C56.0889 62.9311 55.2236 62.1895 54.4709 61.3841C54.042 60.888 54.8407 60.1911 55.2168 60.594Z" fill="black"/>
<path d="M64.3563 64.9078C65.4028 65.178 66.5021 65.5419 67.4959 65.719C67.9929 65.8076 68.6028 65.8324 69.16 65.7639C69.7173 65.6954 69.9432 65.5678 70.4928 65.7497C70.8768 65.902 70.8615 66.4028 70.5752 66.6874C69.6638 67.4481 68.2859 67.1185 67.2921 66.9414C66.0799 66.6414 65.0411 66.1208 63.9495 65.5067C63.6783 65.2905 63.9724 64.7554 64.3563 64.9078Z" fill="black"/>
<path d="M74.3723 62.3296C75.1478 62.3839 75.9837 62.2811 76.6616 61.8985C77.2264 61.5796 77.8517 61.1036 78.5142 61.2217C78.8455 61.2808 79.0035 61.5607 78.8829 61.8748C78.2797 63.4454 75.2829 63.4149 74.1836 63.051C73.7995 62.8989 73.9277 62.3343 74.3723 62.3296Z" fill="black"/>
<path d="M80.4969 56.2884C81.3482 55.6851 82.2596 54.9243 83.0054 54.1342C83.8116 53.1872 83.8949 52.279 84.0384 51.2136C84.1666 50.6491 84.8972 50.3598 85.3261 50.8558C86.8611 53.311 83.2831 55.9459 80.8656 56.9415C80.4741 57.0397 80.158 56.4797 80.4969 56.2884Z" fill="black"/>
<path d="M82.6701 46.9422C82.784 45.0325 81.768 43.7606 81.2643 42.0766C81.1667 41.6398 81.8446 41.2571 82.1682 41.5664C83.4024 42.9611 83.7855 44.9593 83.393 46.9032C83.3251 47.3107 82.7676 47.3793 82.6701 46.9422Z" fill="black"/>
<path d="M73.1596 31.1502C76.0886 31.5883 77.8572 33.6658 78.9554 35.8753C79.1661 36.2485 78.3753 36.6949 78.1646 36.3217C76.9456 34.4262 75.1618 32.8497 72.7978 32.0928C72.135 31.9747 72.4969 31.0323 73.1596 31.1502Z" fill="black"/>
<path d="M62.8148 28.1319C65.3224 27.8236 67.7995 28.5168 69.9375 29.4013C70.4871 29.5832 69.9069 30.4028 69.4703 30.1571C67.3246 29.523 64.9979 29.3601 62.7316 29.0401C62.069 28.922 62.2578 28.2003 62.8148 28.1319Z" fill="black"/>
<path d="M53.0947 26.4834C54.6764 25.5905 57.116 25.6897 58.6595 26.0486C59.3221 26.1667 58.9602 27.1092 58.2976 26.9911C57.4694 26.8435 56.5809 26.8529 55.745 26.9557C54.9091 27.0585 54.013 27.3183 53.1244 27.3278C52.6801 27.3325 52.7558 26.6747 53.0947 26.4834Z" fill="black"/>
<path d="M35.7433 31.111C36.6471 30.6008 37.7089 30.3704 38.6654 29.9535C39.9005 29.5024 41.083 28.9579 42.3105 28.7571C42.9807 28.6248 43.1234 29.4055 42.5058 29.631C41.3837 30.0184 40.2012 30.5629 39.1318 31.0436C38.1753 31.4605 37.0455 32.0982 35.9913 32.0782C35.3211 32.2105 35.1786 31.4297 35.7433 31.111Z" fill="black"/>
<path d="M25.1617 35.8539C26.4724 34.745 28.438 34.0044 30.0724 33.2049C30.6373 32.886 31.006 33.5391 30.4411 33.858C28.912 34.8441 27.3753 36.0806 25.6356 36.6936C25.0183 36.9191 24.6496 36.266 25.1617 35.8539Z" fill="black"/>
<path d="M14.9179 42.2516C15.6034 41.6185 16.447 41.2654 17.238 40.8189C18.0287 40.3725 18.9327 39.8622 19.7762 39.5091C20.3411 39.1902 20.7624 39.9366 20.1975 40.2555C19.4067 40.7019 18.5027 41.2122 17.7647 41.7518C16.9738 42.1983 16.2356 42.738 15.3393 42.9979C14.8873 43.253 14.5713 42.6933 14.9179 42.2516Z" fill="black"/>
<path d="M5.69891 47.8248C6.48299 45.7829 7.31973 43.8342 8.32192 41.9152C9.03039 40.5311 9.93527 38.1749 11.4567 37.4391C12.0216 37.1202 12.7895 37.4249 12.7139 38.0827C12.5626 39.3983 11.2969 40.851 10.5961 41.9847C9.77467 43.4326 9.05856 45.0671 8.34245 46.7016C11.0233 46.1725 13.8622 45.9233 16.5355 45.6445C17.3714 45.5417 17.4988 46.8231 16.6024 47.083C13.3566 47.9311 10.0284 47.8414 6.82765 49.0331C6.09729 49.3223 5.51014 48.5465 5.69891 47.8248Z" fill="black"/>
</g>
<defs>
<clipPath id="clip0">
<rect width="78.0407" height="64.4454" fill="white" transform="matrix(-0.870833 0.491579 0.491579 0.870833 67.9604 0)"/>
</clipPath>
</defs>
</svg>
