<svg xmlns="http://www.w3.org/2000/svg"><defs><clipPath id="a"><path d="M518.795 45.689h49.189v23.657h-49.189V45.689z"/></clipPath></defs><g clip-path="url(#a)" transform="matrix(6.12292 0 0 -6.12292 -3176.588 424.209)"><path d="M538.487 48.884c-.114.205-.26.31-.494.31-.245 0-.514-.18-.514-.468 0-.257.236-.392.428-.47l.22-.093c.438-.182.764-.44.764-.99 0-.598-.432-1.027-.984-1.027-.497 0-.885.393-.95.922l.387.087a.596.596 0 01.596-.624c.331 0 .567.297.567.642 0 .354-.265.506-.53.624l-.212.096c-.35.16-.67.375-.67.833 0 .533.441.852.906.852.343 0 .625-.18.792-.498l-.306-.196zM540.141 46.217h-.384v2.916h-.73v.376h1.845v-.376h-.73v-2.916zM541.505 49.508v-1.942c0-.538.151-1.035.743-1.035s.743.497.743 1.035v1.942h.384v-2.082c0-.725-.421-1.28-1.127-1.28s-1.127.555-1.127 1.28v2.082h.384zM544.258 46.592h.135c.783 0 1.46.314 1.46 1.27 0 .96-.677 1.27-1.46 1.27h-.135v-2.54zm-.384 2.916h.637c.944 0 1.727-.532 1.727-1.628 0-1.122-.768-1.663-1.74-1.663h-.624v3.29zM546.994 46.216h-.384v3.292h.384v-3.292zM550.194 47.862c0 .725-.506 1.332-1.229 1.332-.722 0-1.228-.607-1.228-1.332 0-.75.563-1.332 1.228-1.332.666 0 1.23.581 1.23 1.332m.383 0c0-.978-.722-1.715-1.613-1.715-.89 0-1.612.737-1.612 1.715 0 .943.731 1.715 1.612 1.715.882 0 1.613-.772 1.613-1.715M554.935 47.875v-.13c0-.905-.596-1.599-1.457-1.599-.862 0-1.556.795-1.556 1.707 0 .947.71 1.725 1.596 1.725.478 0 .952-.23 1.254-.638l-.27-.275c-.22.323-.592.537-.967.537-.69 0-1.23-.598-1.23-1.335 0-.69.532-1.345 1.197-1.345.478 0 .992.44 1.008.978h-.796v.375h1.22zM557.132 48.181v1.327h.384v-3.29h-.384v1.578h-1.465v-1.579h-.384v3.291h.384v-1.327h1.465zM558.444 46.216h-.384v3.292h.384v-3.292zM559.37 46.583h.294c.355 0 .726.113.726.581 0 .462-.44.56-.783.56h-.237v-1.14zm0 1.466h.098c.364 0 .661.08.661.551 0 .463-.294.541-.653.541h-.106V48.05zm-.384 1.46h.376c.58 0 1.126-.162 1.126-.905 0-.239-.122-.519-.33-.624v-.008c.363-.07.616-.45.616-.834 0-.66-.526-.922-1.069-.922h-.719v3.292zM561.588 46.592h.935v-.375h-1.32v3.29h.385v-2.915zM563.146 46.216h-.384v3.292h.384v-3.292zM532.72 51.702c.946.37 2.005 1.383 2.472 2.749h-2.228v.499h2.879c-.056-.256-.214-1.012-.823-1.901.253-.216.879-.76 1.449-1.36l-.404-.436c-.175.22-.487.61-1.336 1.402-.3-.366-.895-1.027-1.713-1.383l-.296.43zM537.955 53.585c.184-.083.544-.248.994-.65.377.517.475 1.008.514 1.195h-1.5c-.424-.628-.788-.898-1.126-1.108l-.321.385c.749.417 1.139.97 1.434 1.79l.519-.104a5.21 5.21 0 00-.227-.487h1.825c-.112-.718-.48-2.821-3.007-3.45l-.274.454c.29.05 1.019.179 1.82.935-.428.403-.818.6-.986.687l.335.353zM540.393 51.853c1.615.142 2.348.665 2.904 2.492l.464-.22c-.583-1.736-1.307-2.588-3.248-2.822l-.12.55zm3.217 2.744c-.098.413-.18.6-.223.701l.348.083c.12-.265.201-.568.231-.678l-.356-.106zm-.625-.096c-.06.312-.115.495-.202.738l.352.082c.107-.275.146-.394.218-.728l-.368-.092zm-1.632-1.517c-.497.29-.994.463-1.204.532l.196.476c.16-.049.798-.252 1.205-.49l-.197-.518zm.33 1.063c-.425.23-.827.385-1.196.5l.206.481a7.686 7.686 0 001.208-.481l-.218-.5zM548.247 51.853c1.615.142 2.348.665 2.904 2.492l.464-.22c-.583-1.736-1.307-2.588-3.248-2.822l-.12.55zm3.217 2.744c-.098.413-.18.6-.223.701l.348.083c.12-.265.201-.568.231-.678l-.356-.106zm-.625-.096c-.06.312-.115.495-.202.738l.352.082c.107-.275.146-.394.218-.728l-.368-.092zm-1.632-1.517c-.497.29-.994.463-1.204.532l.196.476c.16-.049.798-.252 1.205-.49l-.197-.518zm.33 1.063c-.424.23-.827.385-1.196.5l.206.481a7.643 7.643 0 001.208-.481l-.218-.5zM555.505 54.721c-.03.184-.112.491-.184.665l.351.068a4.15 4.15 0 00.18-.646l-.347-.087zm-.45.697c.078-.193.12-.349.18-.638l-.129-.018v-.009h.257c-.072-1.993-1.01-3.124-2.617-3.492l-.27.491c.69.142 2.108.445 2.339 2.506h-2.712v.495h2.746a2.954 2.954 0 01-.162.601l.368.064zM558.954 53.346c0-.72-.124-1.283-.622-1.686-.39-.317-.788-.398-1.653-.499l-.158.504c1.097.073 1.928.256 1.928 1.438v1.984h.505v-1.74zm-2.163-.83h-.496v2.488h.496v-2.488zM561.713 55.307a3.672 3.672 0 00-.176-.582h1.847v-.453h-1.423v-.65h1.316v-.454h-1.316v-.656h1.316v-.449h-1.316v-1.027h-.462v3.236h-.163c-.287-.564-.518-.825-.651-.98l-.292.39c.468.484.742 1.212.845 1.68l.475-.055zm-1.846-1.865h-.01a2.77 2.77 0 00-.376-.426l-.197.453c.475.477.762 1 .95 1.89l.455-.084c-.06-.22-.158-.6-.37-1.054v-3.185h-.452v2.406zM564.604 54.011h2.091v.779h-2.091v-.779zm-.423 1.209h2.93v-1.641h-2.93v1.641zm2.003-3.519h.912v1.086h-.912v-1.086zm-2.412 1.508h1.666v-2.122h-.411v.188h-.846v-.22h-.409v2.154zm.409-1.508h.849v1.086h-.849v-1.086zm1.589 1.508h1.739v-2.154h-.411v.22h-.914v-.22h-.414v2.154zM544.166 51.983c1.295.94 1.732 1.792 1.8 1.937l-1.823.002v.504h2.118v.767h.477v-.767h.97v-.516h-.966v-2.684h-.481v2.282s-.386-.935-1.814-1.96l-.281.435zM532.58 50.403h35.219M532.58 50.432h35.219v-.058h-35.22M532.967 62.316v-.047l-.076-.026-.208.005-.208-.009-.011.021.096.06c.139-.026.26.043.387.008l.02-.012zM527.964 57.676l-.036-.043-.068-.09-.048-.055-.144-.116-.147-.097a.752.752 0 00-.384-.176l-.188-.02c-.108.011-.227.011-.315.06l-.096.03c-.127.065-.176.113-.224.251l-.004.034h-.008l-.008.107-.012.03-.02.234v.035h.004l.004.171.015.034.017.034h.008l.004.055h.003l.013.044v.157l.016.03.007.04.01.067h.007l.004.04h.004l.012.037v.026h.008l.008.046h.007l.073.137.044.056c.096.06.18.146.331.154l.176.06c.096-.005.184-.03.28-.048l.2-.097.12-.129h.007l.01-.026h.006l.036-.068c.157-.306.227-.5.256-.855l.004-.038h.008v-.11zm.303-.008l-.107.06-.032.025-.024.022-.016.068h-.009l-.01.188h-.005l-.008.05-.013.078-.015.124h-.008l-.012.06h-.004l-.016.051-.016.06-.032.094h-.008l-.019.051c-.15.37-.235.451-.62.546l-.12.04c-.128.004-.268 0-.383-.044-.092.01-.14-.042-.204-.076l-.156-.11-.045-.07-.01-.034-.049-.064-.024-.03-.012-.047h-.005l-.019-.038v-.013l-.012-.043h-.004l-.012-.064h-.008v-.02l-.008-.078h-.008l-.008-.099h-.008l-.012-.055h-.004l-.012-.072h-.004l-.004-.052h-.008v-.043h-.008l.008-.072-.08-.133h-.004l.004-.043.004-.012.076-.098h-.008v-.03l-.004-.107.012-.065.012-.068.004-.02h.008l.004-.04.016-.05.016-.035.064-.095.135-.127.128-.103c.132-.034.256-.115.416-.077.092.013.208.01.268.07l.112.02.088.025.187.1.132.098c.092.05.136.135.212.196l.072.09.028.025.164.021.047.065M524.652 58.838l.012-.004h-.004v-.008h-.004l-.028-.107h-.008l-.012-.065h-.004l-.012-.08h-.004l-.008-.048-.012-.073h-.008v-.038h-.008l-.028-.056-.048.03-.003.034h.007l.008.12h.008l.012.055h.004l.004.048h.008l.008.063h.008l.02.065.008.026.016.026v.016l.008.008.036.026.024-.038zM524.748 58.565l.004-.018.008-.042h-.008l-.012-.07-.068-.02-.016.09.016.038.076.022zM524.896 58.475l.016-.026v-.068l-.028-.025-.064.059.004.038.012.01.06.012zM525.12 58.351l.007-.047-.024-.03-.067.026-.017.043.004.046h.06l.036-.038z"/><path d="M526.73 57.98l-.024.03-.008.064.028.013.012-.013.004-.021-.012-.073m.096.11l-.017.09h-.007l-.008.099-.024.047-.064.065c-.128.042-.168-.07-.223-.13l-.025-.033-.012-.043h-.004v-.026l-.012-.038h-.007l-.008-.175.015-.158.012-.022.088-.141.168.009.048.03.056.102h.007l.009.047c-.01.103.02.179.008.278M523.365 57.313l.016-.026.031-.047.01-.046-.049-.056-.228-.06-.127.064.015.034h.004l.013.052h.008l.007.047.044.056.188.038.068-.056zM527.517 55.8c-.164-.004-.32 0-.48 0l-.167.021-.032.03.027.013.36-.038c.1.03.196-.014.292-.018V55.8zm3.424-.41c-.147.051-.32.051-.46.106-.135.014-.26.056-.407.044l-.143.03-.136.025c-.104.021-.216.026-.328.034-.096.052-.232.018-.32.068-.16.01-.283.085-.443.065-.113.004-.204.046-.324.034-.115.034-.256.016-.371.038l-.217.017c-.151.017-.311.034-.467.017a1.997 1.997 0 01-.432.043l-.195.03-.036-.077h-.008l.004-.043.096-.11c.12-.034.26-.082.395-.044.108-.004.212-.02.316-.008.1-.017.204.004.3-.022l.195-.016c.128-.009.252.004.376-.017.096.025.176-.022.272-.026l.343-.026c.117-.038.256-.017.372-.047.108-.004.216-.004.316-.03l.224-.02.187-.04.168-.026c.12-.042.263-.038.384-.08l.207-.043.172.022.008.012-.048.09M526.086 55.292c.12-.038.271-.008.392-.064l.171-.04.108-.037c.1 0 .2-.034.303-.038l.085-.095v-.051c-.152.009-.279.069-.428.085l-.192.044c-.228.008-.419.132-.655.08l-.14.09-.015.052.151-.008.22-.018"/><path d="M530.765 54.142c-.104-.043-.215.004-.315.017-.145.06-.316.098-.464.154v.004l-.203.034c-.105.04-.22.055-.337.073l-.183.056c-.164.073-.368.132-.539.192-.169.026-.312.09-.464.137l-.16.072.004.013c.092.01.164-.03.244-.043.116-.06.271-.076.399-.115l.132-.017c.116-.035.252-.047.356-.103.1-.025.175-.089.288-.098.136-.05.291-.08.427-.128l.252-.05c.092-.027.195-.035.28-.074l.132-.039.155-.063h.004l-.008-.022zm.224.008l-.06.07-.136.097c-.088-.004-.136.056-.224.047-.072.034-.132.082-.232.077-.156.056-.343.082-.515.116l-.184.081-.203.064-.148.06-.192.055c-.224.073-.463.1-.695.163-.1.03-.224.021-.312.067-.387.06-.743.171-1.118.25-.081.05-.209.042-.304.08l-.092.017c-.092.021-.2.026-.288.056l-.096.016-.208.065c-.099.06-.235.008-.32-.03l-.015-.02.012-.066.107.043.156-.043c.14-.017.264-.056.392-.094l.056-.02.136-.052c.119-.013.24 0 .339-.047.125-.018.228-.077.36-.047l.044-.03c.088-.004.156-.052.224-.082l-.076-.038-.06-.073.012-.008c.107-.038.22-.055.331-.094.136-.02.252-.09.396-.098.216-.073.435-.124.648-.197.103-.034.235-.05.331-.098l.084-.03c.107-.017.18-.08.292-.086.119-.034.239-.064.356-.102l.247-.065c.156-.038.324-.068.471-.119.104-.008.196.004.288-.026l.196.077v.064M523.17 54.728l.012-.043-.028-.025-.212.017-.004.05.024.035.16.018.048-.052zM528.999 53.155l-.024.008-.232.103-.208.107-.203.107-.228.08c-.104.048-.228.074-.328.13a.753.753 0 00-.279.128l-.168.055c-.084.034-.148.09-.24.111l-.124.043-.227.111-.1.07.028.033c.136-.014.228-.099.367-.116l.052-.017c.12-.052.256-.08.363-.149.093-.03.192-.069.272-.107l.192-.099.116-.064a1.41 1.41 0 00.283-.14l.177-.078.115-.046.24-.133.156-.115v-.022zm.515-.222l-.119.093-.125.117-.251.175c-.108.093-.267.136-.38.23l-.156.081-.068.03-.079.048c-.092.004-.128.072-.204.09l-.164.071-.216.087-.187.072-.156.063c-.089.061-.204.091-.308.133-.103.013-.192.06-.288.081l-.011.014-.24.008-.045-.05-.011-.049h-.004l.024-.085.12-.107c.152-.056.295-.136.448-.187l.215-.09c.08-.065.211-.073.303-.12.081-.078.22-.072.313-.14.147-.018.226-.117.375-.134l.011-.012.196-.094.144-.056a.824.824 0 00.324-.162c.092-.008.164-.06.252-.08l.083-.049.188-.02.021.03-.005.012M525.363 52.207h.016l.024-.034c.076-.04.14-.09.231-.111l.093-.081-.004-.048-.008-.016.087-.052c.104-.017.172-.07.264-.09l.064-.055.032-.07.02-.015.016-.04.008-.063h.008c.153-.17.238-.305.387-.47l.036-.064h.01c.104-.144.301-.3.354-.466l.044-.068c.064-.09.158-.233.184-.347l.012-.157.012-.06h.004l.02-.035.016-.12h.007l.03-.067.015-.035c.023-.088.127-.121.16-.27l.012-.025.015-.063.01-.035.011-.175.04-.103.024-.042.035-.048.09-.076.131-.133.02-.04.015-.174h-.008l-.012-.06h-.004l-.004-.06h-.007l.003-.007h-.003v-.01h.007l.004-.238.016-.214.02-.115.004-.052h.008v-.022l.005-.076.007-.043h.004l-.004-.197.044-.06-.004-.072h-.008l-.008-.06h-.008l-.004-.034h-.004l-.012-.055-.044-.044-.044.022v.06h.008l.013.08.015.082v.026h.008l-.004.05-.1.09-.008.052h.008l.013.048v.064h.004v.05h.007l-.007.078-.017.038-.012.038-.012.018-.012.055h-.008l-.003.14-.004.087h.007v.14h-.007v.154h.007v.073h.008l-.024.137h-.008l-.015.03-.08.08-.084.086-.08.103-.008.038h-.008l-.004.039-.009.102-.03.082-.01.064h-.007l-.016.094-.012.026-.016.034-.064.119h-.004l-.02.03-.036.069-.012.02-.028.04h-.008l-.016.042-.016.055-.004.04h-.008l-.012.11-.008.05-.016.168h-.008l-.016.043-.04.08-.024.053h-.004l-.02.03-.035.063h-.004l-.02.039c-.122.182-.153.268-.36.432l-.093.123h-.003l-.033.056c-.136.225-.286.223-.363.462l-.08.123h-.007l-.136.077-.2.09-.005.038h-.008l-.024.056c-.1 0-.119.085-.183.12l-.176.098-.035.11.051.022.096-.051M523.11 48.357l-.008-.133h-.008l-.004-.038h-.004l-.012-.145.008-.017h-.004l-.004-.154h-.008l-.016-.06v-.013l-.048-.017-.052.02-.036.07-.015.02-.021.044-.02.056-.04.055-.004.013-.096.132-.02.022-.04.08-.004.039h-.008l-.035.06-.061.017-.032.026-.043.06-.14.119c-.096.039-.148.129-.284.115l-.164-.051v-.012l-.211.008-.004.013.004.064.164.149.083.065.124.094.112.11.128.104.1.072c.088.034.156.094.252.124l.079-.013.045-.042.043-.048.02-.043.044-.05.032-.04.016-.037.02-.078h.008l.017-.047.019-.054.016-.048h.008l.012-.06.012-.025.008-.03.028-.171h.008l.012-.21h.004l.02-.103-.008-.012h.008zm.084.103l-.008.102-.02.11h.004l-.016.104h-.008l-.008.08h-.008l-.008.039-.012.11-.016.045h-.008l-.024.093-.012.056h-.008l-.016.073-.02.038-.016.038-.016.035-.011.012-.145.133-.14.09c-.152.043-.252-.068-.34-.137l-.083-.068-.168-.073-.044-.043-.043-.043-.064-.055-.081-.064c-.087-.043-.128-.13-.207-.188l-.036-.038c-.078-.084-.146-.175-.224-.262v-.038h.008l.004-.026.056-.073c.164-.042.324.014.475.039l.172.034c.096.026.128-.051.19-.085l.094-.094.107-.073.005-.017h.008c.07-.104.167-.197.228-.308l.039-.072h.008l.008-.026.016-.03h.008l.02-.06h.008l.04-.09.02-.024.164-.086.08.042.008.009.003.039.017.188h.008v.076h-.008v.133h.008v.05h.004l.003.053h.009l.012.085h.004l.004.038h.004v.056l-.028.073M525.93 45.857l-.027-.03-.104.018c-.135.104-.237.245-.348.375l-.012.013c-.051.064-.167.098-.263.085l-.204.043c-.108.026-.192-.038-.292-.012l-.036.05-.004.005h.004l.004.072.028.03.049.039.05.039.157.136v.009l.044.055.12.129.076.063a.472.472 0 00.267.163l.136.013.128-.112.024-.03.016-.025.04-.102h.008l.012-.04.012-.021.02-.042.012-.064.008-.06c.027-.094-.005-.243.027-.333l.013-.07h.008l.01-.195h.006l.008-.102.012-.061-.008-.038m.132.034l-.017.167-.007.08h.004l-.012.057-.004.017-.036.167h-.004v.02h.004v.133l-.01.175h-.006l-.008.077-.012.03-.016.043h-.008l-.008.052-.012.02-.016.035h-.004l-.012.025-.036.039-.08.107-.168.149-.12.026c-.12.026-.171-.064-.267-.09v-.004l-.128-.094-.2-.197-.02-.034v-.017l-.016-.03-.016-.03-.12-.145-.111-.09-.053-.077-.02-.038-.06-.073v-.06l.024-.034c.064-.073.212-.111.324-.073l.14-.004.227-.008.004.046h.009l.004-.038h-.008l.012-.034h.024l.147-.051v-.008l.068-.061.017-.034.068-.094.015-.021.064-.086h.008l.068-.068.192-.055.164.03.028.055h.008v.098h-.008zM538.748 55.706l.004-.034.028-.154.012-.052.008-.076h.008l.02-.08h.008l.008-.087h.008l.008-.05h.008l.004-.035.036-.133h.004l.004-.05.016-.099h.008l.008-.068h.114l-.003.055h-.008l-.003.04-.012.071h-.009l-.01.051h-.005l-.016.052-.012.055-.008.094h-.008l-.013.051h-.003l-.016.056-.004.055-.012.022-.029.15-.003.051h-.008l-.008.055-.012.03-.016.042h-.008l-.008.056h-.008l-.012.061-.032.076-.016.051h-.008l-.02.064-.016.035-.016.034-.02.047h-.004l-.02.094h-.008l-.02.085-.016.048-.016.03h-.008l-.019.06-.017.037-.028.073-.016.043h-.007l-.02.09-.017.038h-.008l-.015.06h-.008l-.02.081-.017.03-.016.034h-.007l-.02.06-.016.055-.017.043-.032.082-.015.046-.024.061h-.008l-.004.042-.013.047-.019.09h-.005l-.012.063-.01.022-.014.038h-.008l-.01.065h-.005l-.009.034-.01.06-.017.047h-.009l-.019.064-.017.038-.064.103-.047.055-.068.1.008.075.011.052h.005l-.005.055-.039.095-.016.042h-.008l-.008.026h-.008l-.02.038h-.008l-.008.026h-.008l-.028.051c-.173.233-.267.451-.403.688l-.04.082h-.009l-.036.06c-.086.105-.164.23-.279.303l-.104.085-.144-.05.024-.07.156-.09.168-.14.076-.078.111-.11-.036-.047-.059-.06-.024-.025-.012-.014.012-.042.012-.014.163-.059v-.008h.008c.11-.13.206-.273.304-.415l.016-.038h.008l.06-.099v-.047h-.008l-.007-.056h-.009l-.044-.064-.008-.008.004-.02.052-.095.088-.09.004-.013.116-.133.02-.042h.008l.04-.099.02-.025.02-.064h.008l.012-.06.008-.064.015-.073.021-.038.024-.047h.004l.012-.052h.007l.013-.085h-.004l.008-.064h.008l.011-.05.013-.027.011-.06.017-.043.023-.034.021-.05h.007l.017-.073c.037-.103.093-.202.136-.312l.011-.069h.008l.013-.06.023-.093h.01l.006-.06h.008l.02-.073h.008l.017-.047.015-.034.021-.048.015-.042h.008l.041-.085.023-.065.016-.038h.008l.024-.068.016-.039.02-.064h.008zM526.602 63.765v-.043h-.008l-.004-.038h-.004l-.012-.042-.024-.03-.068-.078-.152.052-.044.056-.023.024-.017.043-.012.026-.016.06h.009v.043h.004l.003.094.029.042.039.055.168.04.084-.082.024-.069h.008l.02-.106.004-.047h-.008zm.1.1l-.012.101-.016.03-.032.047-.004.008-.036.034-.064.061c-.068.042-.164-.005-.252.016l-.072-.055-.04-.052-.04-.089h-.003l-.013-.056h-.008v-.085h.008l.013-.116h.004l.02-.093.015-.043h.008l.028-.064.08-.014.248-.025.044.035.06.085.016.026v.008l.044.085h.008l-.004.155"/><path d="M533.043 62.966v-.004l-.064.064-.028.025-.068.09-.004.013-.124.116-.115.097-.14.125-.024.034h-.008l-.004.012-.025.04.164-.078c.147-.17.281-.229.411-.37l.02-.06h.008l.008-.096-.008-.008m-.096-.419l-.048.012.008.022.064.022.004-.008-.028-.048m-3.316.483l-.025.06.117.043.015-.082-.107-.02m-.788-.06l-.036-.052-.175-.116-.26-.102c-.15-.025-.255-.102-.392-.146l-.2-.055-.223-.124-.052-.029a1.065 1.065 0 01-.379-.163l-.248-.107c-.199-.134-.39-.283-.528-.487l-.05-.055-.169.055-.045.072-.015.035-.053.064-.007.026h-.008l-.04.06-.036.067-.02.052-.032.06-.012.051h-.008l-.016.043-.004.03h-.008l-.012.068-.012.07h-.008l-.004.06-.004.2.008.063-.008.081v.15h.004l.012.051v.154h-.008v.103h.008l-.012.09h-.004l-.012.063h-.008v.086l.028.021.095.048.017.025.025.034v.077h.012v.04h.008l.003.076h.005l-.005.09-.027.131-.056.07-.084.03v.067h.004l.004.047h.008l.008.056h.008l.096.166.016.038.02.026.035.065.025.026.007.042h.009l-.012.06-.012.017-.024.038-.02.043h.004v.03h.004c-.008.111.019.21 0 .316l.008.004-.004.022h.004l-.008.115h-.008l-.008.064h-.008l-.016.077-.004.034h-.008l-.008.065h-.008l-.004.093c-.024.094-.008.235-.012.351l.006.141h.005l.012.038v.146h.008l.012.085h.004v.07l.016.007.032-.026c.053-.129.107-.257.18-.375l.031-.107h.005l.02-.069h.007l.017-.034.003-.018.008-.059.004-.004h-.004v-.124h-.008l-.01-.095.007-.004h-.008l.008-.004h-.008v-.03h.008v-.012h-.008v-.085h-.004l-.005-.09h-.008l.008-.138h-.008v-.076h-.007l-.004-.158h-.004v-.116h.008l.024-.025.083.077v.016h.004v.095l.013.145v.038h.004l-.004.115v.065h.004l.003.082h.008l.013.076v.09h.005l.004.12h.004l-.004.004h.004l.01.222h.005l.013.077v.034h.007l.012.06h.004l.012.064h.004l.012.098h.008v.137h-.009v.06h.01l-.004.004h.003l.007.06h.008l.008.07h.008l.012.054h.004l.012.046.02.018.072-.09.012-.043.024-.038.016-.03.02-.065h.004l.02-.038.012-.043.012-.03.012-.076h.004l.016-.039.012-.016.016-.039.02-.064h.008l.008-.048h.008l.02-.05.04-.069.016-.047.004-.038h.008l.008-.082h.008l.008-.123c.007-.13.014-.28.103-.38l.073-.078c.063-.072.127-.14.247-.167l.168-.11.116-.103.028-.055h.008l.016-.03c.068-.124.103-.246.184-.355l.04-.042c.228-.442.136-.223.435-.526l.044-.065.076-.149h.004l.02-.06.016-.06h.008l.02-.077h.008l.016-.034.032-.059.012-.026.004-.013.22-.106.02-.086-.02-.039m-3.109.556l-.02.034-.012.15.008.064h.004l.013.051.031.052.036.046.016-.022.02-.024-.072-.137.032-.044.036-.033.02-.014-.004-.05h-.008l-.036-.052-.064-.02m-5.86-13.004l.151.102c.107.065.224.121.331.19l.064-.045.004-.029.008-.09.017-.124h.003V50.4h-.003l-.009-.158.01-.039h.002l.016-.068.004-.055h.008l.004-.206.016-.17.016-.132.004-.006h-.004l.008-.012h-.008l.004-.008h-.004l-.008-.065-.02-.02-.028.003-.06.09-.008.018-.06.111-.047.055-.036.076h-.005l-.036.06-.019.018c-.032.067-.128.073-.217.067-.11-.012-.195-.054-.299-.08l-.132-.069-.2-.098-.056.013-.008.034h.004l.013.077.02.043.016.026v.034l.024.026.027.076h.005l.011.04c.238.333.152.091.364.35l.112.093m10.987 13l.013.007.055.043h.164v-.026l-.05-.043-.182-.026v.044zm6.357-3.843c-.099.09-.192.188-.267.291l-.053.166-.06.048-.023.042-.02.085-.156.21c-.095.068-.144.183-.255.235l-.132.107-.028.042.011.021.024.04v.063l-.167.133-.085.086-.21.174c-.1.048-.197.103-.317.103-.108.047-.236.06-.336.128l-.21.1-.205.13-.084.07-.012.06.224-.052.136.008.008.055-.028.04-.176.046-.184.026-.155.12.036.026.26-.048.095-.017c.088-.02.176-.064.272-.052l.147.044-.02.038c-.2.017-.366.111-.558.136l-.188.074.089.047c.115.012.215-.026.319-.026a1.79 1.79 0 00.527-.158l.208-.099.064.035v.068l-.052.043-.176.132c-.104-.02-.155.085-.263.065-.164.02-.324.072-.495.055l-.2.03-.029.038.028.026.163.012c.088.014.176.014.268.022.136.021.295.013.431-.013l.024.017v.043c-.183.081-.39.034-.59.052l-.24-.014-.024.03.176.1c.104.058.24.067.336.144.096.043.207.047.31.055l.205.146.016.03.053.098.043.072.012.077h.004l.004.056.004.051.012.137.004.137.012.004-.013.09.012.051v.171l-.008.008c-.004.086 0 .214-.004.325l.02.052-.008.09.008.158.008.111.008.004c0 .107.004.205.008.308l-.008.046c-.028.148-.005.552-.036.722l-.016.095c.008.094-.016.171-.008.265l-.016.038.008.094-.007.004-.008.175-.012.034-.016.03v.1l-.007.003-.013.125-.028.06-.008.085-.012.09-.008.11v.218l-.012.004.008.01-.008.003.008.06h-.004l-.004.141-.008.005-.007.131c-.052.274-.067.547-.157.812l-.035.111c-.044.1-.05.248-.121.33l-.08.043-.212-.048-.023-.047-.032-.034-.032-.055-.032-.038-.052-.09-.072-.146-.068-.145-.04-.068-.044-.08-.027-.036-.025-.038c-.04-.103-.124-.17-.18-.26l-.036-.066-.08-.119c-.274-.517-.531-1.036-.798-1.55l-.028-.052-.016-.052c-.161-.71-.43-1.173-.76-1.816l-.008-.038-.036-.059.02-.056.016-.24c.06-.093.152-.175.22-.26l.084-.11c.039-.14.173-.257.16-.412v-.046l-.1.05-.132.103a.786.786 0 01-.304.21c-.047.042-.087.137-.18.094l-.035-.068-.036-.026-.056-.073c.107-.11.26-.188.375-.29l.156-.137.152-.17.132-.09.012-.043.012-.06-.012-.03-.032-.026-.08.043-.16.128-.107.098c-.088.073-.196.116-.288.188l-.145-.03.096-.093c.089-.078.205-.116.296-.189l.028-.055-.043.008c-.185.018-.352.085-.54.107-.092-.004-.16.06-.256.047-.111.06-.252.026-.363.082l-.017.02-.055.031c-.124-.02-.244-.017-.371-.026l-.085.017-.143.065.007.097c.016.116.168.044.228.12.125.004.208.103.332.103l.032.064-.188.021.008.018.036.034.199.077-.02.038-.084-.013-.147-.06c-.107.005-.2-.017-.307-.02l-.073.046-.08-.108c-.026-.065.045-.102-.015-.26l-.024-.183-.121-.03c-.127-.026-.255-.017-.38-.047l-.206-.03-.037.133-.004.076.013.085.007.004-.007.18.007.026-.007.03.007.077.02.038.008.068.008.081.008.06-.012.035-.02.09-.023.055-.005.111-.2.133-.127.098c-.09.171-.075.28-.032.462l.016.038.028.055c.06.162.122.32.164.487l.01.073.05.223h.004l.004.042.015.085c.078.257.184.496.269.748l.023.056.008.043c.225.633.408.808.736 1.324l.143.175.096.09.044-.042c.053-.187.084-.379.12-.568l-.008-.24-.008-.004.024-.052c.024-.187.047-.373.056-.56l.004-.149c.026-.122.036-.164.055-.295l.017-.046v-.125l.008-.004c-.008-.11.016-.197.008-.308l.008-.059.019-.056v-.154l-.015-.072-.004-.107-.008-.034-.008-.107-.008-.008-.004-.103.004-.107.008-.026.016-.038.008-.129.01-.038.018-.038.008-.073.015-.043.009-.184h-.004l-.01-.085-.07-.17c-.076-.099-.188-.193-.336-.189l-.207-.099-.104-.102-.01-.059.02-.03.004-.065.046-.026c.087.026.179.04.268.07l.13.025.144.026-.204.064-.087-.005-.008.026.2.107c.088.056.172.115.247.187l.04.073c.077.078.052.252.049.354v.073l-.012.06-.017.065v.32l-.007.004-.021.07v.26l.013.003v.094l.008.16-.008.046-.02.064v.282l.007.004-.007.04c.02.234-.044.457-.053.686l-.008.064c-.052.152-.001.201-.06.321l-.007.103-.02.06c.012.093-.012.17-.005.268l-.011.077c-.031.39-.095.368-.144.646l-.02.055-.172.004-.083-.093-.132-.125-.013-.016-.007-.048-.025-.042-.055-.073-.11-.175-.082-.103c-.155-.138-.166-.305-.32-.49l-.008-.048-.024-.055c-.082-.274-.227-.508-.288-.765l-.044-.09-.007-.047-.025-.06-.02-.025c-.086-.315-.184-.394-.22-.757l-.011-.09-.016-.03c-.012-.252-.264-.586-.164-.82l.02-.052.024-.046.052-.09c.06-.102.192-.11.284-.184l.083-.069-.071-.14-.121.051c-.123.022-.207.111-.307.163l-.228.077-.087-.039.104-.09a.375.375 0 00.247-.107l-.084-.08-.06-.077.224-.014c.104-.03.236-.008.319-.093l-.02-.064-.251-.022-.12-.043-.016-.03.147.008.22-.008.012-.089-.051-.056c-.1-.022-.204-.034-.3-.06l-.028-.055.056-.018.232.07.083-.022V63.3l-.08-.085-.18-.09-.222-.09-.164-.094-.092-.008.007.094.008.051-.012.056-.015.047-.116.06-.204.038-.008.04-.016.058-.072.197-.012.021-.036.07c-.036.126-.14.2-.224.29l-.152.12c-.258.33-.265.491-.48.794l-.191.175c-.152.055-.3.128-.395.252l-.008.055-.008.056-.02.055-.004.13-.021.071v.013l.008.09-.015.042-.017.035-.015.068-.021.026-.023.085-.02.026-.025.064-.043.068-.021.068-.003.056-.024.043-.068.18-.072.124-.02.06-.016.055-.02.038-.032.09-.02.033-.087.022-.057-.055c-.104-.152-.125-.694-.163-.829l-.04-.017-.053.093a5 5 0 00-.175.428l-.088.116-.064-.014-.02-.055-.016-.082-.012-.055-.016-.098-.016-.06-.012-.2-.008-.005v-.094l-.016-.085v-.205l.008-.004-.008-.026v-.17l.008-.006.008-.132c.028-.094.054-.183.08-.278l-.012-.089c.012-.11-.012-.206-.004-.317l.008-.068h.003v-.129c-.234-.414-.162-.297-.223-.645l-.003-.132-.013-.009.013-.067c.002-.136.033-.298.047-.445l.017-.069c0-.098-.01-.153-.005-.256l-.012-.004-.008-.064c-.037-.2-.051-.404.025-.599l.032-.14h.003l.024-.09.072-.17.044-.09.068-.125-.104-.124-.088-.098-.064.017-.004-.013-.024.013-.084-.072-.02.072.009.09-.06.034-.072-.107-.045-.11-.024-.048c-.165-.127-.221-.38-.351-.556l-.044-.059-.016-.048c-.052-.132-.123-.25-.183-.379l-.064-.103-.028-.078-.03-.038a2.549 2.549 0 01-.41-1.089l-.02-.06-.008-.124h-.004l-.005-.043-.007-.042-.016-.039-.008-.11-.02-.039-.124-.175-.112-.065-.152-.068c-.196-.034-.38-.11-.56-.175l-.071-.055c-.128-.005-.191-.103-.276-.167v-.013l-.024-.039-.007-.063-.03-.056-.006-.133v-.08l.007-.057.012-.063-.004-.116-.04-.086-.075-.183-.028-.115-.008-.018-.064-.133-.053.01-.135-.004v.004l-.116.055-.156-.034.008-.06.056-.03.219-.064.16-.077.025-.047.02-.077v-.14l-.01-.04-.026-.038c-.12-.016-.232-.05-.344-.077-.144-.038-.264-.11-.404-.157l-.224-.103-.003-.056.024-.06.203.06.249.12c.159.043.303.132.475.15l.024-.039.012-.052-.012-.064-.016-.038-.008-.047-.021-.034-.015-.064-.008-.065-.016-.029-.021-.064-.16-.11-.06-.087.213.022.088-.086.008-.094.016-.043.016-.05.02-.03.008-.09.015-.039.013-.06.015-.038.017-.052.028-.043-.02-.06a.795.795 0 00-.264-.085l-.148-.055-.06-.052-.016-.068.016-.11.012-.039-.012-.004-.084-.116-.068-.146-.055-.097-.113-.155-.128-.068-.18-.17-.06-.082-.011-.034-.016-.039-.025-.042-.155-.133-.056-.103c-.04-.123-.18-.17-.24-.277-.028-.094-.148-.102-.188-.184-.103-.064-.167-.158-.26-.23l-.147-.116-.143-.068.059-.103-.087-.12a.74.74 0 01-.224-.218l-.068-.085.007-.038.032-.107-.015-.026-.145-.166-.043-.06-.068-.11-.012-.06.02-.035-.008-.073-.084-.119-.048-.078-.044-.063-.004-.06-.02-.077-.024-.077-.151-.175-.032-.048-.017-.042-.12-.17-.044-.104-.007-.025-.012-.064-.017-.043-.015-.06-.013-.107-.004-.153-.011-.026.015-.056-.1-.124c-.065-.217-.086-.169-.147-.32l.015-.026c.068-.12.019-.439-.043-.564l-.004-.08.04-.027.036.064.016.077.008.07.02.033.016.046.016.07-.008.153.016.047.019.056.025.051.052.068v.06l-.005.055.013.04.139.17.089.094.023.04v.015l-.068.116.024.017c.104.034.2.103.316.111.112.052.236.167.372.094l.203-.162.044-.065.017-.046.015-.043.148-.14.144.02.072.116.016.06.016.055.02.047v.286l-.013.078-.007.06-.008.106h-.008v.572l-.016.052-.02.047-.008.042-.064.116-.24-.047-.04-.035-.207-.11c-.085-.043-.145-.133-.24-.138l.036.103.032.086.016.064.007.081c.089.055.153.141.245.196l.015.04-.087.008-.06-.013.023.038.152.171c.116.056.16.16.248.235l.032.12-.1.008v.022c.36.312.322.512.855.854l.216.218c.088.004.1.094.168.125.123.15.336.187.499.307.148.09.316.132.492.166l.264.07.13.025.009-.095.06-.02a.746.746 0 01.423-.116c.089.034.232.051.3-.02.1-.027.152-.112.26-.126l.168-.056.164-.127.13-.115c.073-.082.193-.11.257-.206l.157-.102.139-.077c.1-.047.168-.133.276-.17l.084.017-.052.11-.2.103-.247.154c-.105.06-.21.132-.288.21l-.19.161-.206.15c-.104.017-.196.077-.296.107-.08.025-.143.081-.232.098l-.2.01-.175.076c-.092-.022-.096.081-.176.093-.1.01-.208.022-.312.01-.107.012-.18-.09-.284-.044-.087-.004-.163-.047-.247-.05a1.326 1.326 0 01-.311-.155l-.156-.08-.168-.04.008.056c.06.111.192.145.279.24l.037.004.107.123.016.052.02.03.072.085.108.158.144.137.036.086.055.081.02.076c.076.07.193.065.285.1l.019.033-.06.094.037.116c-.087.324-.247.472-.205.884l.02.04.008.058.017.047.008.055.02.048v.093l.016.073.016.133.019.042v.1l-.02.05-.015.06.007.052.017.081-.004.05h.004l.004.052c.114.2.052.173.124.316l.1.124-.028.086-.025.102-.011.223.099.238.14.038.179-.1c.117-.023.173-.134.253-.19l.02-.034.059-.098.028-.072-.011-.018v-.128l.036-.039.103.034v.176l-.024.064-.02.056-.035.068a.994.994 0 01-.22.214l-.057.047-.16.106.157.1.06-.023.007-.042c.093-.099.18.068.292.038l.028-.056v-.047l.084-.004.267-.017c.113-.064-.063-.085-.043-.162l.228-.073-.012-.038-.024-.038.008-.039.135-.048.045.04-.105.101.02.077.008.005-.007.03-.14.192-.04.055-.132.048-.096.077.016.12.212.17.059-.03.06.022.008.025.009.146.015.025.008.072.02.078.008.063.017.026.01.07.018.041-.013.07-.06-.044-.015-.038-.008-.06-.017-.047-.035-.154-.02-.055-.005.038.017.051v.112l.008.004.007.175.017.051c.05.188.05.402.168.56l.07.137.08.192c.165.282.327.69.492.953l.06.115.053.052-.004-.107.048-.038.047.093.06.145.024.048.029.042.06.021.059-.067.092.042.148.192.016.026.016.038.116.115.228-.03.01-.02.022-.082.124.056c.064.098.155.175.227.265.128.111.236.23.39.315l.04-.008.146.022c.1.093.252.127.363.2.08.073.204.1.304.15.088.043.192.043.275.085.152.04.268.133.408.18.116.022.2.103.323.098.113.021.217.077.332.09.109.013.208.068.316.051l.15.04c.097.045.206.03.314.041.087.03.192.026.283.043.12.043.228-.034.348-.02.343.037.687-.023 1.01-.083.132-.038.284-.02.416-.063l.1-.014.116-.016.06-.08-.012-.045.119-.11-.143-.073-.004-.043c.083-.056.204-.02.303-.03l.18-.012.18.008.06-.085.072-.013.024.038.008.064.016.1c.074.224.038.533.08.738v.192c-.512 1.09-.672.485-.132 1.606l.028.073c.006.217.22.438.223.616l.013.081.028.051.012.077h.008l.003.035c.339 1.026 1.045 2.066 1.559 3l.112.148.155-.017.017-.217.008-.004.02-.073.023-.056.017-.043.019-.064.009-.077.015-.09.012-.115.016-.064v-.107l.008-.008.012-.158h.005l.007-.14c.027-.058.047-.204.072-.24v-.117l.008-.004V67.2l.009-.008.007-.056.016-.043.013-.06.015-.107v-.153l.017-.043.01-.09.017-.068.008-.089.02-.026-.012-.025.012-.095.004-.252.012-.004.008-.235.012-.095h.005l-.01-.012c-.003-.202.05-.414.033-.542l-.004-.176-.012-.004v-.098l-.016-.069v-.119l-.008-.004-.008-.142.008-.132v-.244l-.02-.056.012-.063v-.112l-.012-.008v-.14l-.004-.095-.02-.05-.008-.086-.016-.06-.028-.09c-.076-.12-.232-.163-.383-.167-.088.004-.148-.064-.228-.076-.092-.044-.2-.052-.303-.077a.529.529 0 01-.25-.21l-.018-.047c.023-.54-.241-.772-.244-1.06l.043-.039.105.077.019.034.017.052.143-.038a.689.689 0 00.288-.159c.168-.093.323-.218.515-.264l.072-.03c.092-.013.164-.065.256-.08.12-.083.279-.116.375-.228l-.011-.055-.136-.022-.068-.05.176-.104.28-.158c.155-.05.264-.166.35-.277l.02-.056-.031-.018c-.08.03-.168.07-.26.06l-.08-.055.112-.06a.821.821 0 00.404-.213l.156-.154.143-.15.108-.119.096-.107h.048l-.032.081"/><path d="M526.477 63.917l.016-.026.004-.115.004-.068-.008-.01-.1-.03-.036.027-.02.043-.036.119.03.034v.014l.042.02.104-.008z"/></g></svg>