<svg width="304" height="340" viewBox="0 0 304 340" fill="none" xmlns="http://www.w3.org/2000/svg">
<path d="M151.065 42.6696V2.61504C151.065 0.389781 153.924 -0.792386 155.854 0.598399L240.484 61.0975C241.914 62.1406 241.914 64.1573 240.484 65.2004L155.854 125.7C153.924 127.09 151.065 125.839 151.065 123.683V83.6978C88.3064 84.6714 38.057 136.548 42.3457 198.716C45.9911 252.122 90.7366 295.445 145.632 298.852C203.816 302.468 253.279 261.996 262.142 208.521C263.786 198.577 272.65 191.345 283.014 191.345C295.809 191.345 305.744 202.401 303.743 214.64C291.305 290.925 219.041 348.156 135.268 339.046C65.2188 331.397 8.96519 276.878 1.03107 208.729C-9.47628 119.58 61.7164 43.6432 151.065 42.6696V42.6696Z" fill="#FFE385"/>
</svg>
